# xmcd
#
# Track frame offsets:
#	150
#	11279
#	24729
#	38569
#	52625
#	67995
#	82556
#	94600
#	108736
#	126232
#	138027
#	150327
#	164107
#	179223
#	192015
#	203909
#	217866
#	226814
#	237763
#	249441
#	260509
#	271372
#	280140
#	294340
#
# Disc length: 4073 seconds
#
# Revision: 0
# Processed by: cddbd v1.5.2PL0 Copyright (c) Steve Scherf et al.
# Submitted via: audiograbber 1.83.01
#
DISCID=3a0fe718
DTITLE=The Liverbirds - Starclub Show 4 (1964 LP)
DYEAR=1964
DGENRE=
TTITLE0=Johnny B. Good
TTITLE1=Can't Judge A Book
TTITLE2=Love Hurts
TTITLE3=Talking About You
TTITLE4=Mona
TTITLE5=Money
TTITLE6=Too Much Monkey Business
TTITLE7=Road Runner
TTITLE8=Diddley Daddy
TTITLE9=Hands Off
TTITLE10=Before You Accuse Me
TTITLE11=Leave All Your Old Loves
TTITLE12=Got My Mojo Workin'
TTITLE13=Peanut Butter
TTITLE14=He's About A Mover
TTITLE15=It's Got To Be You
TTITLE16=He Hardly Ever Calls Me Honey
TTITLE17=For Your Love
TTITLE18=Heatwave
TTITLE19=Why Do You Hang Around Me
TTITLE20=Loop De Loop
TTITLE21=Bo Diddley Is A Lover
TTITLE22=Nobody But You
TTITLE23=The Past
EXTD=
EXTT0=
EXTT1=
EXTT2=
EXTT3=
EXTT4=
EXTT5=
EXTT6=
EXTT7=
EXTT8=
EXTT9=
EXTT10=
EXTT11=
EXTT12=
EXTT13=
EXTT14=
EXTT15=
EXTT16=
EXTT17=
EXTT18=
EXTT19=
EXTT20=
EXTT21=
EXTT22=
EXTT23=
PLAYORDER=
